<mxfile host="app.diagrams.net" modified="2022-08-25T11:33:12.396Z" agent="5.0 (Windows NT 10.0; Win64; x64) AppleWebKit/537.36 (KHTML, like Gecko) Chrome/104.0.0.0 Safari/537.36" etag="mE6Th2FWVhO3t2lRLPrR" version="20.2.2" type="github">
  <diagram id="HhjXPJS-7uaV8t8p5f1u" name="第 1 页">
    <mxGraphModel dx="1865" dy="1748" grid="1" gridSize="10" guides="1" tooltips="1" connect="1" arrows="0" fold="1" page="1" pageScale="1" pageWidth="827" pageHeight="1169" math="0" shadow="0">
      <root>
        <mxCell id="0" />
        <mxCell id="1" parent="0" />
        <mxCell id="7gVdF0R3puTZTDRzPLGD-5" value="" style="rounded=0;whiteSpace=wrap;html=1;" vertex="1" parent="1">
          <mxGeometry x="505" y="-90" width="120" height="220" as="geometry" />
        </mxCell>
        <mxCell id="7gVdF0R3puTZTDRzPLGD-1" value="" style="rounded=0;whiteSpace=wrap;html=1;" vertex="1" parent="1">
          <mxGeometry y="-90" width="360" height="220" as="geometry" />
        </mxCell>
        <mxCell id="7gVdF0R3puTZTDRzPLGD-3" value="&lt;span style=&quot;text-align: left;&quot;&gt;Consumer 实例&lt;/span&gt;" style="rounded=0;whiteSpace=wrap;html=1;" vertex="1" parent="1">
          <mxGeometry x="520" y="40" width="90" height="40" as="geometry" />
        </mxCell>
        <mxCell id="7gVdF0R3puTZTDRzPLGD-4" value="&lt;span style=&quot;text-align: left;&quot;&gt;Consumer 实例&lt;/span&gt;" style="rounded=0;whiteSpace=wrap;html=1;" vertex="1" parent="1">
          <mxGeometry x="520" y="-50" width="90" height="40" as="geometry" />
        </mxCell>
        <mxCell id="7gVdF0R3puTZTDRzPLGD-6" value="&lt;article data-content=&quot;[{&amp;quot;type&amp;quot;:&amp;quot;block&amp;quot;,&amp;quot;id&amp;quot;:&amp;quot;pvip-1661261883332&amp;quot;,&amp;quot;name&amp;quot;:&amp;quot;paragraph&amp;quot;,&amp;quot;data&amp;quot;:{&amp;quot;version&amp;quot;:1},&amp;quot;nodes&amp;quot;:[{&amp;quot;type&amp;quot;:&amp;quot;text&amp;quot;,&amp;quot;id&amp;quot;:&amp;quot;5fh9-1661261883331&amp;quot;,&amp;quot;leaves&amp;quot;:[{&amp;quot;text&amp;quot;:&amp;quot;Consumer&amp;nbsp;Group&amp;quot;,&amp;quot;marks&amp;quot;:[{&amp;quot;type&amp;quot;:&amp;quot;fontSize&amp;quot;,&amp;quot;value&amp;quot;:18}]}]}],&amp;quot;state&amp;quot;:{}}]&quot;&gt;&lt;div style=&quot;line-height: 1.75; text-align: left;&quot;&gt;&lt;font style=&quot;font-size: 14px;&quot;&gt;Consumer Group&lt;/font&gt;&lt;/div&gt;&lt;/article&gt;" style="text;html=1;resizable=0;autosize=1;align=center;verticalAlign=middle;points=[];fillColor=none;strokeColor=none;rounded=0;" vertex="1" parent="1">
          <mxGeometry x="540" y="-70" width="130" height="40" as="geometry" />
        </mxCell>
        <mxCell id="7gVdF0R3puTZTDRzPLGD-8" value="分区1" style="rounded=0;whiteSpace=wrap;html=1;fontSize=14;" vertex="1" parent="1">
          <mxGeometry x="110" y="-60" width="120" height="60" as="geometry" />
        </mxCell>
        <mxCell id="7gVdF0R3puTZTDRzPLGD-9" value="分区2" style="rounded=0;whiteSpace=wrap;html=1;fontSize=14;" vertex="1" parent="1">
          <mxGeometry x="110" y="30" width="120" height="60" as="geometry" />
        </mxCell>
        <mxCell id="7gVdF0R3puTZTDRzPLGD-10" value="&lt;font style=&quot;font-size: 18px;&quot;&gt;topic&lt;/font&gt;" style="text;html=1;resizable=0;autosize=1;align=center;verticalAlign=middle;points=[];fillColor=none;strokeColor=none;rounded=0;fontSize=12;" vertex="1" parent="1">
          <mxGeometry x="670" y="-60" width="60" height="40" as="geometry" />
        </mxCell>
        <mxCell id="7gVdF0R3puTZTDRzPLGD-11" value="" style="endArrow=classic;html=1;rounded=0;fontSize=18;entryX=1;entryY=0.5;entryDx=0;entryDy=0;exitX=0;exitY=0.5;exitDx=0;exitDy=0;" edge="1" parent="1" source="7gVdF0R3puTZTDRzPLGD-4" target="7gVdF0R3puTZTDRzPLGD-8">
          <mxGeometry width="50" height="50" relative="1" as="geometry">
            <mxPoint x="480" y="-30" as="sourcePoint" />
            <mxPoint x="440" y="-50" as="targetPoint" />
          </mxGeometry>
        </mxCell>
        <mxCell id="7gVdF0R3puTZTDRzPLGD-12" value="" style="endArrow=classic;html=1;rounded=0;fontSize=18;entryX=1;entryY=0.5;entryDx=0;entryDy=0;exitX=0;exitY=0.5;exitDx=0;exitDy=0;" edge="1" parent="1">
          <mxGeometry width="50" height="50" relative="1" as="geometry">
            <mxPoint x="520" y="60" as="sourcePoint" />
            <mxPoint x="230" y="60" as="targetPoint" />
          </mxGeometry>
        </mxCell>
        <mxCell id="7gVdF0R3puTZTDRzPLGD-13" value="" style="rounded=0;whiteSpace=wrap;html=1;" vertex="1" parent="1">
          <mxGeometry x="565" y="590" width="120" height="220" as="geometry" />
        </mxCell>
        <mxCell id="7gVdF0R3puTZTDRzPLGD-14" value="" style="rounded=0;whiteSpace=wrap;html=1;" vertex="1" parent="1">
          <mxGeometry x="-250" y="710" width="650" height="220" as="geometry" />
        </mxCell>
        <mxCell id="7gVdF0R3puTZTDRzPLGD-15" value="&lt;span style=&quot;text-align: left;&quot;&gt;Consumer 实例&lt;/span&gt;" style="rounded=0;whiteSpace=wrap;html=1;" vertex="1" parent="1">
          <mxGeometry x="580" y="720" width="90" height="40" as="geometry" />
        </mxCell>
        <mxCell id="7gVdF0R3puTZTDRzPLGD-16" value="&lt;span style=&quot;text-align: left;&quot;&gt;Consumer 实例&lt;/span&gt;" style="rounded=0;whiteSpace=wrap;html=1;" vertex="1" parent="1">
          <mxGeometry x="580" y="630" width="90" height="40" as="geometry" />
        </mxCell>
        <mxCell id="7gVdF0R3puTZTDRzPLGD-17" value="&lt;article data-content=&quot;[{&amp;quot;type&amp;quot;:&amp;quot;block&amp;quot;,&amp;quot;id&amp;quot;:&amp;quot;pvip-1661261883332&amp;quot;,&amp;quot;name&amp;quot;:&amp;quot;paragraph&amp;quot;,&amp;quot;data&amp;quot;:{&amp;quot;version&amp;quot;:1},&amp;quot;nodes&amp;quot;:[{&amp;quot;type&amp;quot;:&amp;quot;text&amp;quot;,&amp;quot;id&amp;quot;:&amp;quot;5fh9-1661261883331&amp;quot;,&amp;quot;leaves&amp;quot;:[{&amp;quot;text&amp;quot;:&amp;quot;Consumer&amp;nbsp;Group&amp;quot;,&amp;quot;marks&amp;quot;:[{&amp;quot;type&amp;quot;:&amp;quot;fontSize&amp;quot;,&amp;quot;value&amp;quot;:18}]}]}],&amp;quot;state&amp;quot;:{}}]&quot;&gt;&lt;div style=&quot;line-height: 1.75; text-align: left;&quot;&gt;&lt;font style=&quot;font-size: 14px;&quot;&gt;Consumer Group&lt;/font&gt;&lt;/div&gt;&lt;/article&gt;" style="text;html=1;resizable=0;autosize=1;align=center;verticalAlign=middle;points=[];fillColor=none;strokeColor=none;rounded=0;" vertex="1" parent="1">
          <mxGeometry x="560" y="545" width="130" height="40" as="geometry" />
        </mxCell>
        <mxCell id="7gVdF0R3puTZTDRzPLGD-18" value="&lt;article data-content=&quot;[{&amp;quot;type&amp;quot;:&amp;quot;block&amp;quot;,&amp;quot;id&amp;quot;:&amp;quot;EV1N-1661261909076&amp;quot;,&amp;quot;name&amp;quot;:&amp;quot;paragraph&amp;quot;,&amp;quot;data&amp;quot;:{&amp;quot;version&amp;quot;:1},&amp;quot;nodes&amp;quot;:[{&amp;quot;type&amp;quot;:&amp;quot;text&amp;quot;,&amp;quot;id&amp;quot;:&amp;quot;Siz3-1661261909075&amp;quot;,&amp;quot;leaves&amp;quot;:[{&amp;quot;text&amp;quot;:&amp;quot;Coordinator&amp;quot;,&amp;quot;marks&amp;quot;:[{&amp;quot;type&amp;quot;:&amp;quot;fontSize&amp;quot;,&amp;quot;value&amp;quot;:18}]}]}],&amp;quot;state&amp;quot;:{}}]&quot;&gt;&lt;div style=&quot;line-height: 1.75; text-align: left;&quot;&gt;&lt;span style=&quot;font-size: 18px;&quot;&gt;Coordinator&lt;/span&gt;&lt;/div&gt;&lt;/article&gt;" style="rounded=0;whiteSpace=wrap;html=1;fontSize=14;" vertex="1" parent="1">
          <mxGeometry x="150" y="740" width="120" height="150" as="geometry" />
        </mxCell>
        <mxCell id="7gVdF0R3puTZTDRzPLGD-20" value="&lt;article data-content=&quot;[{&amp;quot;type&amp;quot;:&amp;quot;block&amp;quot;,&amp;quot;id&amp;quot;:&amp;quot;EV1N-1661261909076&amp;quot;,&amp;quot;name&amp;quot;:&amp;quot;paragraph&amp;quot;,&amp;quot;data&amp;quot;:{&amp;quot;version&amp;quot;:1},&amp;quot;nodes&amp;quot;:[{&amp;quot;type&amp;quot;:&amp;quot;text&amp;quot;,&amp;quot;id&amp;quot;:&amp;quot;Siz3-1661261909075&amp;quot;,&amp;quot;leaves&amp;quot;:[{&amp;quot;text&amp;quot;:&amp;quot;Broker&amp;quot;,&amp;quot;marks&amp;quot;:[{&amp;quot;type&amp;quot;:&amp;quot;fontSize&amp;quot;,&amp;quot;value&amp;quot;:18}]}]}],&amp;quot;state&amp;quot;:{}}]&quot;&gt;&lt;div style=&quot;line-height: 1.75; font-size: 14px; text-align: left;&quot;&gt;&lt;span style=&quot;font-size: 18px;&quot;&gt;Broker&lt;/span&gt;&lt;/div&gt;&lt;/article&gt;" style="text;html=1;resizable=0;autosize=1;align=center;verticalAlign=middle;points=[];fillColor=none;strokeColor=none;rounded=0;fontSize=12;" vertex="1" parent="1">
          <mxGeometry x="-250" y="660" width="80" height="50" as="geometry" />
        </mxCell>
        <mxCell id="7gVdF0R3puTZTDRzPLGD-25" value="&lt;article data-content=&quot;[{&amp;quot;type&amp;quot;:&amp;quot;block&amp;quot;,&amp;quot;id&amp;quot;:&amp;quot;EV1N-1661261909076&amp;quot;,&amp;quot;name&amp;quot;:&amp;quot;paragraph&amp;quot;,&amp;quot;data&amp;quot;:{&amp;quot;version&amp;quot;:1},&amp;quot;nodes&amp;quot;:[{&amp;quot;type&amp;quot;:&amp;quot;text&amp;quot;,&amp;quot;id&amp;quot;:&amp;quot;Siz3-1661261909075&amp;quot;,&amp;quot;leaves&amp;quot;:[{&amp;quot;text&amp;quot;:&amp;quot;注册、成员管理记录等元数据管理操作&amp;quot;,&amp;quot;marks&amp;quot;:[{&amp;quot;type&amp;quot;:&amp;quot;fontSize&amp;quot;,&amp;quot;value&amp;quot;:18}]}]}],&amp;quot;state&amp;quot;:{}}]&quot;&gt;&lt;div style=&quot;line-height: 1.75; text-align: left;&quot;&gt;&lt;font style=&quot;font-size: 16px;&quot;&gt;a2. 执行消费组的注册、成员管理记录等元数据管理操作&lt;/font&gt;&lt;/div&gt;&lt;/article&gt;" style="text;html=1;resizable=0;autosize=1;align=center;verticalAlign=middle;points=[];fillColor=none;strokeColor=none;rounded=0;fontSize=18;" vertex="1" parent="1">
          <mxGeometry x="30" y="1080" width="420" height="50" as="geometry" />
        </mxCell>
        <mxCell id="7gVdF0R3puTZTDRzPLGD-27" value="&lt;article data-content=&quot;[{&amp;quot;type&amp;quot;:&amp;quot;block&amp;quot;,&amp;quot;id&amp;quot;:&amp;quot;EV1N-1661261909076&amp;quot;,&amp;quot;name&amp;quot;:&amp;quot;paragraph&amp;quot;,&amp;quot;data&amp;quot;:{&amp;quot;version&amp;quot;:1},&amp;quot;nodes&amp;quot;:[{&amp;quot;type&amp;quot;:&amp;quot;text&amp;quot;,&amp;quot;id&amp;quot;:&amp;quot;Siz3-1661261909075&amp;quot;,&amp;quot;leaves&amp;quot;:[{&amp;quot;text&amp;quot;:&amp;quot;注册、成员管理记录等元数据管理操作&amp;quot;,&amp;quot;marks&amp;quot;:[{&amp;quot;type&amp;quot;:&amp;quot;fontSize&amp;quot;,&amp;quot;value&amp;quot;:18}]}]}],&amp;quot;state&amp;quot;:{}}]&quot;&gt;&lt;div style=&quot;line-height: 1.75; text-align: left;&quot;&gt;&lt;font style=&quot;font-size: 14px;&quot;&gt;&lt;span style=&quot;background-color: initial;&quot;&gt;a1. Consumer Group&lt;/span&gt;发起请求&lt;/font&gt;&lt;/div&gt;&lt;/article&gt;" style="text;html=1;resizable=0;autosize=1;align=center;verticalAlign=middle;points=[];fillColor=none;strokeColor=none;rounded=0;fontSize=18;rotation=0;" vertex="1" parent="1">
          <mxGeometry x="310" y="725" width="210" height="50" as="geometry" />
        </mxCell>
        <mxCell id="7gVdF0R3puTZTDRzPLGD-29" value="" style="endArrow=classic;html=1;rounded=0;fontSize=18;entryX=0.995;entryY=0.121;entryDx=0;entryDy=0;entryPerimeter=0;" edge="1" parent="1" target="7gVdF0R3puTZTDRzPLGD-18">
          <mxGeometry width="50" height="50" relative="1" as="geometry">
            <mxPoint x="560" y="760" as="sourcePoint" />
            <mxPoint x="270" y="770" as="targetPoint" />
          </mxGeometry>
        </mxCell>
        <mxCell id="7gVdF0R3puTZTDRzPLGD-30" value="" style="endArrow=classic;html=1;rounded=0;fontSize=14;entryX=0.435;entryY=0.036;entryDx=0;entryDy=0;entryPerimeter=0;" edge="1" parent="1" target="7gVdF0R3puTZTDRzPLGD-25">
          <mxGeometry width="50" height="50" relative="1" as="geometry">
            <mxPoint x="210" y="890" as="sourcePoint" />
            <mxPoint x="210" y="980" as="targetPoint" />
          </mxGeometry>
        </mxCell>
        <mxCell id="7gVdF0R3puTZTDRzPLGD-32" value="" style="rounded=0;whiteSpace=wrap;html=1;" vertex="1" parent="1">
          <mxGeometry x="50" y="340" width="360" height="290" as="geometry" />
        </mxCell>
        <mxCell id="7gVdF0R3puTZTDRzPLGD-38" value="&lt;font style=&quot;font-size: 18px;&quot;&gt;&lt;span style=&quot;text-align: left; background-color: initial;&quot;&gt;__consumer_offsets&amp;nbsp;&lt;/span&gt;topic&lt;/font&gt;" style="text;html=1;resizable=0;autosize=1;align=center;verticalAlign=middle;points=[];fillColor=none;strokeColor=none;rounded=0;fontSize=12;" vertex="1" parent="1">
          <mxGeometry x="115" y="290" width="230" height="40" as="geometry" />
        </mxCell>
        <mxCell id="7gVdF0R3puTZTDRzPLGD-41" value="分区2" style="rounded=0;whiteSpace=wrap;html=1;fontSize=14;" vertex="1" parent="1">
          <mxGeometry x="160" y="450" width="120" height="60" as="geometry" />
        </mxCell>
        <mxCell id="7gVdF0R3puTZTDRzPLGD-42" value="分区1" style="rounded=0;whiteSpace=wrap;html=1;fontSize=14;" vertex="1" parent="1">
          <mxGeometry x="160" y="360" width="120" height="60" as="geometry" />
        </mxCell>
        <mxCell id="7gVdF0R3puTZTDRzPLGD-43" value="" style="rounded=0;whiteSpace=wrap;html=1;" vertex="1" parent="1">
          <mxGeometry x="565" y="870" width="120" height="220" as="geometry" />
        </mxCell>
        <mxCell id="7gVdF0R3puTZTDRzPLGD-44" value="&lt;span style=&quot;text-align: left;&quot;&gt;Consumer 实例&lt;/span&gt;" style="rounded=0;whiteSpace=wrap;html=1;" vertex="1" parent="1">
          <mxGeometry x="580" y="1000" width="90" height="40" as="geometry" />
        </mxCell>
        <mxCell id="7gVdF0R3puTZTDRzPLGD-45" value="&lt;span style=&quot;text-align: left;&quot;&gt;Consumer 实例&lt;/span&gt;" style="rounded=0;whiteSpace=wrap;html=1;" vertex="1" parent="1">
          <mxGeometry x="580" y="910" width="90" height="40" as="geometry" />
        </mxCell>
        <mxCell id="7gVdF0R3puTZTDRzPLGD-46" value="&lt;article data-content=&quot;[{&amp;quot;type&amp;quot;:&amp;quot;block&amp;quot;,&amp;quot;id&amp;quot;:&amp;quot;pvip-1661261883332&amp;quot;,&amp;quot;name&amp;quot;:&amp;quot;paragraph&amp;quot;,&amp;quot;data&amp;quot;:{&amp;quot;version&amp;quot;:1},&amp;quot;nodes&amp;quot;:[{&amp;quot;type&amp;quot;:&amp;quot;text&amp;quot;,&amp;quot;id&amp;quot;:&amp;quot;5fh9-1661261883331&amp;quot;,&amp;quot;leaves&amp;quot;:[{&amp;quot;text&amp;quot;:&amp;quot;Consumer&amp;nbsp;Group&amp;quot;,&amp;quot;marks&amp;quot;:[{&amp;quot;type&amp;quot;:&amp;quot;fontSize&amp;quot;,&amp;quot;value&amp;quot;:18}]}]}],&amp;quot;state&amp;quot;:{}}]&quot;&gt;&lt;div style=&quot;line-height: 1.75; text-align: left;&quot;&gt;&lt;font style=&quot;font-size: 14px;&quot;&gt;Consumer Group&lt;/font&gt;&lt;/div&gt;&lt;/article&gt;" style="text;html=1;resizable=0;autosize=1;align=center;verticalAlign=middle;points=[];fillColor=none;strokeColor=none;rounded=0;" vertex="1" parent="1">
          <mxGeometry x="560" y="830" width="130" height="40" as="geometry" />
        </mxCell>
        <mxCell id="7gVdF0R3puTZTDRzPLGD-47" value="" style="endArrow=classic;html=1;rounded=0;fontSize=18;exitX=-0.01;exitY=0.114;exitDx=0;exitDy=0;exitPerimeter=0;entryX=1.028;entryY=0.665;entryDx=0;entryDy=0;entryPerimeter=0;" edge="1" parent="1" source="7gVdF0R3puTZTDRzPLGD-43" target="7gVdF0R3puTZTDRzPLGD-18">
          <mxGeometry width="50" height="50" relative="1" as="geometry">
            <mxPoint x="565" y="930" as="sourcePoint" />
            <mxPoint x="270" y="785" as="targetPoint" />
          </mxGeometry>
        </mxCell>
        <mxCell id="7gVdF0R3puTZTDRzPLGD-48" value="&lt;article data-content=&quot;[{&amp;quot;type&amp;quot;:&amp;quot;block&amp;quot;,&amp;quot;id&amp;quot;:&amp;quot;EV1N-1661261909076&amp;quot;,&amp;quot;name&amp;quot;:&amp;quot;paragraph&amp;quot;,&amp;quot;data&amp;quot;:{&amp;quot;version&amp;quot;:1},&amp;quot;nodes&amp;quot;:[{&amp;quot;type&amp;quot;:&amp;quot;text&amp;quot;,&amp;quot;id&amp;quot;:&amp;quot;Siz3-1661261909075&amp;quot;,&amp;quot;leaves&amp;quot;:[{&amp;quot;text&amp;quot;:&amp;quot;注册、成员管理记录等元数据管理操作&amp;quot;,&amp;quot;marks&amp;quot;:[{&amp;quot;type&amp;quot;:&amp;quot;fontSize&amp;quot;,&amp;quot;value&amp;quot;:18}]}]}],&amp;quot;state&amp;quot;:{}}]&quot;&gt;&lt;div style=&quot;line-height: 1.75; text-align: left;&quot;&gt;&lt;font style=&quot;font-size: 14px;&quot;&gt;&lt;span style=&quot;background-color: initial;&quot;&gt;a1. Consumer Group&lt;/span&gt;发起请求&lt;/font&gt;&lt;/div&gt;&lt;/article&gt;" style="text;html=1;resizable=0;autosize=1;align=center;verticalAlign=middle;points=[];fillColor=none;strokeColor=none;rounded=0;fontSize=18;rotation=10;" vertex="1" parent="1">
          <mxGeometry x="320" y="825" width="210" height="50" as="geometry" />
        </mxCell>
        <mxCell id="7gVdF0R3puTZTDRzPLGD-49" value="&lt;font style=&quot;font-size: 18px;&quot;&gt;topic&lt;/font&gt;" style="text;html=1;resizable=0;autosize=1;align=center;verticalAlign=middle;points=[];fillColor=none;strokeColor=none;rounded=0;fontSize=12;" vertex="1" parent="1">
          <mxGeometry x="-240" y="710" width="60" height="40" as="geometry" />
        </mxCell>
        <mxCell id="7gVdF0R3puTZTDRzPLGD-50" value="" style="edgeStyle=none;orthogonalLoop=1;jettySize=auto;html=1;rounded=0;fontSize=14;exitX=1;exitY=0.5;exitDx=0;exitDy=0;" edge="1" parent="1" source="7gVdF0R3puTZTDRzPLGD-13" target="7gVdF0R3puTZTDRzPLGD-41">
          <mxGeometry width="80" relative="1" as="geometry">
            <mxPoint x="625" y="590" as="sourcePoint" />
            <mxPoint x="410" y="480" as="targetPoint" />
            <Array as="points">
              <mxPoint x="720" y="700" />
              <mxPoint x="720" y="480" />
            </Array>
          </mxGeometry>
        </mxCell>
        <mxCell id="7gVdF0R3puTZTDRzPLGD-53" value="&lt;span style=&quot;background-color: rgb(255, 255, 255);&quot;&gt;b1.&amp;nbsp; abs(&lt;/span&gt;&lt;span style=&quot;background-color: rgb(255, 255, 255);&quot;&gt;hashcode(&lt;/span&gt;&lt;span style=&quot;background-color: rgb(255, 255, 255); text-align: left;&quot;&gt;group.id&lt;/span&gt;&lt;span style=&quot;background-color: rgb(255, 255, 255);&quot;&gt;)%分区数&lt;/span&gt;&lt;span style=&quot;background-color: rgb(255, 255, 255);&quot;&gt;)&lt;/span&gt;" style="text;html=1;strokeColor=none;fillColor=none;align=center;verticalAlign=middle;whiteSpace=wrap;rounded=0;fontSize=14;" vertex="1" parent="1">
          <mxGeometry x="450" y="440" width="250" height="30" as="geometry" />
        </mxCell>
        <mxCell id="7gVdF0R3puTZTDRzPLGD-54" value="" style="edgeStyle=none;orthogonalLoop=1;jettySize=auto;html=1;rounded=0;fontSize=14;exitX=0;exitY=0.5;exitDx=0;exitDy=0;" edge="1" parent="1" source="7gVdF0R3puTZTDRzPLGD-41">
          <mxGeometry width="80" relative="1" as="geometry">
            <mxPoint x="30" y="490" as="sourcePoint" />
            <mxPoint x="130" y="700" as="targetPoint" />
            <Array as="points">
              <mxPoint x="130" y="480" />
            </Array>
          </mxGeometry>
        </mxCell>
        <mxCell id="7gVdF0R3puTZTDRzPLGD-55" value="&lt;span style=&quot;background-color: rgb(255, 255, 255);&quot;&gt;b2. find 分区的leader副本&lt;/span&gt;" style="text;html=1;strokeColor=none;fillColor=none;align=center;verticalAlign=middle;whiteSpace=wrap;rounded=0;fontSize=14;rotation=-90;" vertex="1" parent="1">
          <mxGeometry y="550" width="230" height="30" as="geometry" />
        </mxCell>
        <mxCell id="7gVdF0R3puTZTDRzPLGD-56" value="分区1" style="rounded=0;whiteSpace=wrap;html=1;fontSize=16;" vertex="1" parent="1">
          <mxGeometry x="-140" y="730" width="120" height="40" as="geometry" />
        </mxCell>
        <mxCell id="7gVdF0R3puTZTDRzPLGD-57" value="分区2" style="rounded=0;whiteSpace=wrap;html=1;fontSize=16;" vertex="1" parent="1">
          <mxGeometry x="-140" y="780" width="120" height="40" as="geometry" />
        </mxCell>
        <mxCell id="7gVdF0R3puTZTDRzPLGD-58" value="分区3" style="rounded=0;whiteSpace=wrap;html=1;fontSize=16;" vertex="1" parent="1">
          <mxGeometry x="-140" y="830" width="120" height="40" as="geometry" />
        </mxCell>
        <mxCell id="7gVdF0R3puTZTDRzPLGD-59" value="分区4" style="rounded=0;whiteSpace=wrap;html=1;fontSize=16;" vertex="1" parent="1">
          <mxGeometry x="-140" y="880" width="120" height="40" as="geometry" />
        </mxCell>
        <mxCell id="7gVdF0R3puTZTDRzPLGD-60" value="" style="edgeStyle=none;orthogonalLoop=1;jettySize=auto;html=1;rounded=0;fontSize=16;entryX=0.5;entryY=0;entryDx=0;entryDy=0;exitX=0;exitY=0.5;exitDx=0;exitDy=0;" edge="1" parent="1" source="7gVdF0R3puTZTDRzPLGD-16" target="7gVdF0R3puTZTDRzPLGD-56">
          <mxGeometry width="80" relative="1" as="geometry">
            <mxPoint x="320" y="670" as="sourcePoint" />
            <mxPoint x="400" y="670" as="targetPoint" />
            <Array as="points">
              <mxPoint x="-80" y="650" />
            </Array>
          </mxGeometry>
        </mxCell>
        <mxCell id="7gVdF0R3puTZTDRzPLGD-61" value="" style="edgeStyle=none;orthogonalLoop=1;jettySize=auto;html=1;rounded=0;fontSize=16;entryX=1;entryY=0.5;entryDx=0;entryDy=0;exitX=0;exitY=0.5;exitDx=0;exitDy=0;" edge="1" parent="1" source="7gVdF0R3puTZTDRzPLGD-15" target="7gVdF0R3puTZTDRzPLGD-57">
          <mxGeometry width="80" relative="1" as="geometry">
            <mxPoint x="210" y="840" as="sourcePoint" />
            <mxPoint x="290" y="840" as="targetPoint" />
            <Array as="points">
              <mxPoint x="540" y="680" />
              <mxPoint x="240" y="680" />
            </Array>
          </mxGeometry>
        </mxCell>
        <mxCell id="7gVdF0R3puTZTDRzPLGD-62" value="" style="edgeStyle=none;orthogonalLoop=1;jettySize=auto;html=1;rounded=0;fontSize=16;exitX=0;exitY=0.5;exitDx=0;exitDy=0;entryX=0.5;entryY=1;entryDx=0;entryDy=0;" edge="1" parent="1" source="7gVdF0R3puTZTDRzPLGD-44" target="7gVdF0R3puTZTDRzPLGD-59">
          <mxGeometry width="80" relative="1" as="geometry">
            <mxPoint x="210" y="840" as="sourcePoint" />
            <mxPoint x="290" y="840" as="targetPoint" />
            <Array as="points">
              <mxPoint x="-80" y="1020" />
            </Array>
          </mxGeometry>
        </mxCell>
        <mxCell id="7gVdF0R3puTZTDRzPLGD-63" value="" style="edgeStyle=none;orthogonalLoop=1;jettySize=auto;html=1;rounded=0;fontSize=16;entryX=1;entryY=0.5;entryDx=0;entryDy=0;exitX=0;exitY=0.5;exitDx=0;exitDy=0;" edge="1" parent="1" source="7gVdF0R3puTZTDRzPLGD-45" target="7gVdF0R3puTZTDRzPLGD-58">
          <mxGeometry width="80" relative="1" as="geometry">
            <mxPoint x="420" y="980" as="sourcePoint" />
            <mxPoint x="290" y="940" as="targetPoint" />
            <Array as="points">
              <mxPoint x="10" y="900" />
            </Array>
          </mxGeometry>
        </mxCell>
        <mxCell id="7gVdF0R3puTZTDRzPLGD-65" value="&lt;article data-content=&quot;[{&amp;quot;type&amp;quot;:&amp;quot;block&amp;quot;,&amp;quot;id&amp;quot;:&amp;quot;XNVy-1661421956202&amp;quot;,&amp;quot;name&amp;quot;:&amp;quot;code&amp;quot;,&amp;quot;data&amp;quot;:{&amp;quot;language&amp;quot;:&amp;quot;&amp;quot;,&amp;quot;theme&amp;quot;:&amp;quot;default&amp;quot;,&amp;quot;wrap&amp;quot;:false},&amp;quot;nodes&amp;quot;:[{&amp;quot;type&amp;quot;:&amp;quot;block&amp;quot;,&amp;quot;id&amp;quot;:&amp;quot;zAoi-1661421956201&amp;quot;,&amp;quot;name&amp;quot;:&amp;quot;code-line&amp;quot;,&amp;quot;data&amp;quot;:{},&amp;quot;nodes&amp;quot;:[{&amp;quot;type&amp;quot;:&amp;quot;text&amp;quot;,&amp;quot;id&amp;quot;:&amp;quot;aDGd-1661420225892&amp;quot;,&amp;quot;leaves&amp;quot;:[{&amp;quot;text&amp;quot;:&amp;quot;key:&lt;Group&amp;nbsp;ID，主题名，分区号&gt;&amp;quot;,&amp;quot;marks&amp;quot;:[{&amp;quot;type&amp;quot;:&amp;quot;fontSize&amp;quot;,&amp;quot;value&amp;quot;:18}]}]}]}],&amp;quot;state&amp;quot;:{}}]&quot;&gt;&lt;div data-language=&quot;&quot; style=&quot;&quot; data-theme=&quot;default&quot;&gt;key:&amp;lt;Group ID，主题名，分区号&amp;gt;&amp;nbsp;&lt;span style=&quot;background-color: initial;&quot;&gt;value:&amp;lt;offsets,others metadata&amp;gt;&lt;/span&gt;&lt;/div&gt;&lt;/article&gt;" style="text;html=1;resizable=0;autosize=1;align=center;verticalAlign=middle;points=[];fillColor=none;strokeColor=none;rounded=0;fontSize=16;" vertex="1" parent="1">
          <mxGeometry x="-480" y="360" width="500" height="30" as="geometry" />
        </mxCell>
        <mxCell id="7gVdF0R3puTZTDRzPLGD-66" value="分区3" style="rounded=0;whiteSpace=wrap;html=1;fontSize=14;" vertex="1" parent="1">
          <mxGeometry x="160" y="550" width="120" height="60" as="geometry" />
        </mxCell>
        <mxCell id="7gVdF0R3puTZTDRzPLGD-69" value="&lt;article data-content=&quot;[{&amp;quot;type&amp;quot;:&amp;quot;block&amp;quot;,&amp;quot;id&amp;quot;:&amp;quot;XNVy-1661421956202&amp;quot;,&amp;quot;name&amp;quot;:&amp;quot;code&amp;quot;,&amp;quot;data&amp;quot;:{&amp;quot;language&amp;quot;:&amp;quot;&amp;quot;,&amp;quot;theme&amp;quot;:&amp;quot;default&amp;quot;,&amp;quot;wrap&amp;quot;:false},&amp;quot;nodes&amp;quot;:[{&amp;quot;type&amp;quot;:&amp;quot;block&amp;quot;,&amp;quot;id&amp;quot;:&amp;quot;zAoi-1661421956201&amp;quot;,&amp;quot;name&amp;quot;:&amp;quot;code-line&amp;quot;,&amp;quot;data&amp;quot;:{},&amp;quot;nodes&amp;quot;:[{&amp;quot;type&amp;quot;:&amp;quot;text&amp;quot;,&amp;quot;id&amp;quot;:&amp;quot;aDGd-1661420225892&amp;quot;,&amp;quot;leaves&amp;quot;:[{&amp;quot;text&amp;quot;:&amp;quot;key:&lt;Group&amp;nbsp;ID，主题名，分区号&gt;&amp;quot;,&amp;quot;marks&amp;quot;:[{&amp;quot;type&amp;quot;:&amp;quot;fontSize&amp;quot;,&amp;quot;value&amp;quot;:18}]}]}]}],&amp;quot;state&amp;quot;:{}}]&quot;&gt;&lt;div data-language=&quot;&quot; style=&quot;&quot; data-theme=&quot;default&quot;&gt;key:&amp;lt;Group ID，主题名，分区号&amp;gt;&amp;nbsp;&lt;span style=&quot;background-color: initial;&quot;&gt;value:&amp;lt;comsumer group msg&amp;gt;&lt;/span&gt;&lt;/div&gt;&lt;/article&gt;" style="text;html=1;resizable=0;autosize=1;align=center;verticalAlign=middle;points=[];fillColor=none;strokeColor=none;rounded=0;fontSize=16;" vertex="1" parent="1">
          <mxGeometry x="-480" y="390" width="490" height="30" as="geometry" />
        </mxCell>
        <mxCell id="7gVdF0R3puTZTDRzPLGD-70" value="&lt;article data-content=&quot;[{&amp;quot;type&amp;quot;:&amp;quot;block&amp;quot;,&amp;quot;id&amp;quot;:&amp;quot;XNVy-1661421956202&amp;quot;,&amp;quot;name&amp;quot;:&amp;quot;code&amp;quot;,&amp;quot;data&amp;quot;:{&amp;quot;language&amp;quot;:&amp;quot;&amp;quot;,&amp;quot;theme&amp;quot;:&amp;quot;default&amp;quot;,&amp;quot;wrap&amp;quot;:false},&amp;quot;nodes&amp;quot;:[{&amp;quot;type&amp;quot;:&amp;quot;block&amp;quot;,&amp;quot;id&amp;quot;:&amp;quot;zAoi-1661421956201&amp;quot;,&amp;quot;name&amp;quot;:&amp;quot;code-line&amp;quot;,&amp;quot;data&amp;quot;:{},&amp;quot;nodes&amp;quot;:[{&amp;quot;type&amp;quot;:&amp;quot;text&amp;quot;,&amp;quot;id&amp;quot;:&amp;quot;aDGd-1661420225892&amp;quot;,&amp;quot;leaves&amp;quot;:[{&amp;quot;text&amp;quot;:&amp;quot;key:&lt;Group&amp;nbsp;ID，主题名，分区号&gt;&amp;quot;,&amp;quot;marks&amp;quot;:[{&amp;quot;type&amp;quot;:&amp;quot;fontSize&amp;quot;,&amp;quot;value&amp;quot;:18}]}]}]}],&amp;quot;state&amp;quot;:{}}]&quot;&gt;&lt;div data-language=&quot;&quot; style=&quot;&quot; data-theme=&quot;default&quot;&gt;key:&amp;lt;Group ID，主题名，分区号&amp;gt;&amp;nbsp;&lt;span style=&quot;background-color: initial;&quot;&gt;value:&amp;lt;del group expired offsets&amp;gt;&lt;/span&gt;&lt;/div&gt;&lt;/article&gt;" style="text;html=1;resizable=0;autosize=1;align=center;verticalAlign=middle;points=[];fillColor=none;strokeColor=none;rounded=0;fontSize=16;" vertex="1" parent="1">
          <mxGeometry x="-480" y="420" width="510" height="30" as="geometry" />
        </mxCell>
      </root>
    </mxGraphModel>
  </diagram>
</mxfile>
